PathFileType	4	(X/Y/Z)	S:\OneDrive - The University of Tokyo\ìåëÂéˆã∆\ÉoÉCÉÅÉJ\ë™íË\hirabayashi_2\Trimmed\Trimmed_BarR40kg1.trc
DataRate	CameraRate	NumFrames	NumMarkers	Units	OrigDataRate	OrigDataStartFrame	OrigNumFrames
200.00	200.00	       24	12	mm	200.00	147	       293
Frame#	Time	BarR0			BarR50			BarR100			BarR130			BarR180			BarR230			BarL0			BarL50			BarL100			BarL130			BarL180			BarL230			
		X1	Y1	Z1	X2	Y2	Z2	X3	Y3	Z3	X4	Y4	Z4	X5	Y5	Z5	X6	Y6	Z6	X7	Y7	Z7	X8	Y8	Z8	X9	Y9	Z9	X10	Y10	Z10	X11	Y11	Z11	X12	Y12	Z12	

147	0.730	-576.48840	2754.32153	1664.19678	-603.59454	2305.08911	1653.45386	-637.41888	1851.38464	1646.79785	-660.75818	1349.64636	1646.73584	-689.73676	902.99280	1653.55688	-713.83923	455.32687	1663.99402	-1113.54541	2808.18433	1664.68701	-1140.69482	2356.48706	1667.88062	-1171.19019	1906.04639	1668.76501	-1198.98584	1404.26306	1669.15735	-1226.74536	952.64917	1668.33093	-1244.53247	506.40836	1667.64612	
148	0.735	-576.48773	2754.29712	1664.20264	-603.63940	2305.07446	1653.44702	-637.41400	1851.40125	1646.80957	-660.77649	1349.62024	1646.72571	-689.71863	902.99231	1653.55042	-713.83081	455.35889	1663.98474	-1113.54077	2808.16797	1664.67676	-1140.70642	2356.48315	1667.86462	-1171.20129	1906.05847	1668.75854	-1198.97388	1404.26013	1669.15112	-1226.75940	952.65887	1668.32092	-1244.50659	506.40234	1667.63391	
149	0.740	-576.48029	2754.31396	1664.19958	-603.62061	2305.05762	1653.41638	-637.39105	1851.39905	1646.80481	-660.77301	1349.63452	1646.73193	-689.73456	903.01184	1653.54675	-713.82892	455.35028	1663.99194	-1113.55322	2808.15674	1664.67639	-1140.70227	2356.50146	1667.86621	-1171.18469	1906.05432	1668.76428	-1198.98047	1404.25952	1669.14575	-1226.74109	952.64026	1668.32349	-1244.51831	506.38379	1667.64771	
150	0.745	-576.49713	2754.30688	1664.18103	-603.60529	2305.06177	1653.44788	-637.38824	1851.40393	1646.80908	-660.79620	1349.62061	1646.72632	-689.73096	903.03363	1653.54211	-713.83600	455.31995	1663.99048	-1113.54639	2808.16821	1664.68677	-1140.69727	2356.47021	1667.86206	-1171.18091	1906.03601	1668.76343	-1198.97534	1404.29541	1669.14929	-1226.74585	952.66193	1668.30591	-1244.53687	506.42911	1667.63086	
151	0.750	-576.48395	2754.31104	1664.20007	-603.61841	2305.08740	1653.43762	-637.41687	1851.39294	1646.82104	-660.76550	1349.62109	1646.73071	-689.73419	903.03387	1653.56287	-713.84296	455.33890	1663.98511	-1113.54468	2808.16284	1664.68420	-1140.70728	2356.50000	1667.87524	-1171.18799	1906.05835	1668.76831	-1198.98621	1404.27222	1669.14600	-1226.76440	952.63672	1668.30969	-1244.52698	506.40149	1667.64685	
152	0.755	-576.47888	2754.29810	1664.18860	-603.62213	2305.08765	1653.45129	-637.39972	1851.40625	1646.81787	-660.75439	1349.62708	1646.73486	-689.72388	903.01843	1653.55884	-713.84247	455.35873	1663.99719	-1113.54761	2808.15015	1664.69995	-1140.71021	2356.48242	1667.87305	-1171.16455	1906.06311	1668.76794	-1198.97681	1404.26794	1669.14587	-1226.75220	952.63654	1668.31958	-1244.53650	506.42621	1667.63831	
153	0.760	-576.48322	2754.29175	1664.20032	-603.61346	2305.05103	1653.44373	-637.41412	1851.38147	1646.80640	-660.77673	1349.65173	1646.74646	-689.71545	903.02954	1653.56848	-713.83264	455.34134	1663.97534	-1113.52368	2808.15649	1664.71411	-1140.70410	2356.48145	1667.86206	-1171.18298	1906.07117	1668.75928	-1198.96692	1404.24622	1669.15027	-1226.74158	952.63922	1668.32800	-1244.51379	506.39667	1667.64063	
154	0.765	-576.48938	2754.30420	1664.18750	-603.61255	2305.07275	1653.45728	-637.40979	1851.39307	1646.80347	-660.79279	1349.63013	1646.72046	-689.72620	902.98193	1653.54773	-713.82397	455.35318	1663.97986	-1113.53467	2808.15210	1664.68713	-1140.70618	2356.49805	1667.87415	-1171.19287	1906.05823	1668.76501	-1198.96069	1404.26257	1669.14050	-1226.74670	952.63708	1668.31897	-1244.54211	506.43909	1667.64685	
155	0.770	-576.47827	2754.29590	1664.17737	-603.61432	2305.07007	1653.44739	-637.40668	1851.41663	1646.80334	-660.75708	1349.62048	1646.73071	-689.73816	903.01068	1653.56274	-713.83441	455.35535	1663.97913	-1113.53284	2808.15259	1664.66907	-1140.71265	2356.49243	1667.87122	-1171.18677	1906.06177	1668.75684	-1198.94800	1404.28064	1669.18335	-1226.74292	952.62756	1668.30994	-1244.52332	506.41925	1667.63660	
156	0.775	-576.49487	2754.32617	1664.17505	-603.59259	2305.09766	1653.44592	-637.38104	1851.39941	1646.81409	-660.77826	1349.65356	1646.73511	-689.72632	903.03125	1653.55017	-713.84863	455.34552	1663.98572	-1113.52222	2808.14673	1664.69153	-1140.70251	2356.51123	1667.88379	-1171.18921	1906.04700	1668.76514	-1198.96899	1404.27661	1669.14673	-1226.75854	952.64655	1668.31616	-1244.53076	506.40707	1667.64636	
157	0.780	-576.47339	2754.28491	1664.20630	-603.60278	2305.09253	1653.44592	-637.42767	1851.40039	1646.81201	-660.78833	1349.64783	1646.72742	-689.71698	903.04346	1653.55676	-713.83771	455.34097	1663.98828	-1113.53174	2808.14355	1664.69690	-1140.69067	2356.48828	1667.88586	-1171.17578	1906.04431	1668.76953	-1198.98450	1404.28320	1669.12903	-1226.76501	952.63593	1668.32227	-1244.52551	506.41348	1667.64514	
158	0.785	-576.50281	2754.31128	1664.18250	-603.60730	2305.05688	1653.45081	-637.40472	1851.41455	1646.81958	-660.77185	1349.62671	1646.72632	-689.72693	903.03143	1653.55591	-713.84418	455.35843	1663.99170	-1113.52478	2808.19556	1664.70276	-1140.71289	2356.47632	1667.86816	-1171.17468	1906.05872	1668.77441	-1198.96777	1404.25305	1669.15649	-1226.75049	952.65729	1668.32520	-1244.52124	506.41846	1667.64978	
159	0.790	-576.49646	2754.29932	1664.17285	-603.59491	2305.07227	1653.44275	-637.38098	1851.39929	1646.81738	-660.76556	1349.63953	1646.73682	-689.73224	903.03357	1653.55811	-713.81866	455.35391	1663.98645	-1113.50928	2808.17236	1664.70789	-1140.69519	2356.49438	1667.86975	-1171.19165	1906.04346	1668.76001	-1198.97180	1404.25159	1669.14783	-1226.74976	952.62872	1668.30957	-1244.50989	506.40097	1667.65979	
160	0.795	-576.49097	2754.30957	1664.19202	-603.62000	2305.10132	1653.44214	-637.39215	1851.37537	1646.82324	-660.76880	1349.63696	1646.72327	-689.72821	903.02527	1653.55566	-713.84399	455.34473	1663.98486	-1113.55701	2808.18237	1664.69019	-1140.69934	2356.47778	1667.85461	-1171.19128	1906.07593	1668.74475	-1198.95862	1404.29028	1669.14050	-1226.74854	952.64868	1668.30811	-1244.52319	506.40125	1667.64648	
161	0.800	-576.48578	2754.31836	1664.19519	-603.60535	2305.09668	1653.44128	-637.39655	1851.39905	1646.82056	-660.77307	1349.62329	1646.72742	-689.73083	903.02496	1653.55383	-713.83923	455.35004	1663.98352	-1113.54443	2808.15674	1664.68542	-1140.70166	2356.48022	1667.85925	-1171.17798	1906.04419	1668.75525	-1198.97534	1404.25989	1669.13879	-1226.74536	952.63446	1668.31506	-1244.52844	506.41034	1667.65295	
162	0.805	-576.47162	2754.30981	1664.19116	-603.62158	2305.06299	1653.45044	-637.38660	1851.40552	1646.82129	-660.77905	1349.61035	1646.72693	-689.73364	902.99255	1653.55359	-713.82758	455.36746	1663.98730	-1113.52039	2808.15552	1664.68958	-1140.70520	2356.47241	1667.89148	-1171.19995	1906.06653	1668.75439	-1198.97131	1404.26941	1669.14832	-1226.74890	952.64099	1668.30176	-1244.52039	506.40170	1667.63953	
163	0.810	-576.48157	2754.29541	1664.18860	-603.61688	2305.07373	1653.44812	-637.40186	1851.41077	1646.81897	-660.78241	1349.63147	1646.73633	-689.71234	902.99579	1653.56238	-713.84521	455.33511	1663.98608	-1113.52051	2808.17285	1664.68445	-1140.71143	2356.47388	1667.87561	-1171.17651	1906.05273	1668.76257	-1198.97437	1404.27478	1669.14124	-1226.74585	952.63843	1668.32410	-1244.52417	506.41602	1667.64807	
164	0.815	-576.47168	2754.30884	1664.20032	-603.61987	2305.06201	1653.42566	-637.40735	1851.40454	1646.80261	-660.77942	1349.64185	1646.72803	-689.71576	903.00873	1653.54956	-713.84277	455.34485	1663.98962	-1113.52869	2808.16724	1664.68286	-1140.69556	2356.47607	1667.87683	-1171.18384	1906.07605	1668.76404	-1198.95984	1404.26697	1669.14771	-1226.74866	952.65131	1668.30847	-1244.52747	506.41086	1667.64929	
165	0.820	-576.48169	2754.29419	1664.18713	-603.59149	2305.08398	1653.44470	-637.40100	1851.40515	1646.79834	-660.79010	1349.62219	1646.73303	-689.73132	903.03033	1653.55750	-713.83026	455.33603	1663.98987	-1113.53345	2808.17017	1664.67712	-1140.70215	2356.48267	1667.87122	-1171.16968	1906.04114	1668.76782	-1198.96765	1404.25256	1669.16052	-1226.75403	952.64661	1668.31592	-1244.51697	506.39548	1667.64954	
166	0.825	-576.49072	2754.31738	1664.18848	-603.63782	2305.07935	1653.43884	-637.38898	1851.40234	1646.80920	-660.76428	1349.61304	1646.72900	-689.73523	903.00983	1653.55017	-713.83203	455.35428	1663.98669	-1113.54919	2808.16699	1664.68652	-1140.70874	2356.48730	1667.85376	-1171.18250	1906.05334	1668.77063	-1198.98279	1404.24500	1669.15271	-1226.73889	952.66095	1668.31946	-1244.51843	506.39917	1667.65295	
167	0.830	-576.49011	2754.32275	1664.19739	-603.61469	2305.06152	1653.44568	-637.38403	1851.40344	1646.81836	-660.79150	1349.63733	1646.72546	-689.72150	903.01752	1653.55249	-713.81635	455.35760	1663.98767	-1113.54846	2808.15063	1664.69324	-1140.71204	2356.48340	1667.85620	-1171.17590	1906.05371	1668.75720	-1198.96204	1404.27441	1669.14429	-1226.74329	952.65228	1668.31653	-1244.52795	506.40781	1667.64307	
168	0.835	-576.46997	2754.29712	1664.20300	-603.58826	2305.07324	1653.44678	-637.39557	1851.40991	1646.80835	-660.79034	1349.62170	1646.73523	-689.73846	903.01697	1653.74536	-713.82910	455.33533	1663.98828	-1113.53894	2808.16333	1664.68335	-1140.70288	2356.48926	1667.86353	-1171.18652	1906.03455	1668.77771	-1198.95886	1404.27209	1669.17407	-1226.73950	952.66803	1668.32117	-1244.50989	506.39694	1667.63403	
169	0.840	-576.47693	2754.30273	1664.18713	-603.61670	2305.08447	1653.44714	-637.41357	1851.38452	1646.82068	-660.76807	1349.61108	1646.73376	-689.71014	903.04059	1653.56311	-713.83496	455.35941	1663.99268	-1113.55994	2808.17163	1664.70325	-1140.68994	2356.46875	1667.86426	-1171.17859	1906.04492	1668.76599	-1198.94324	1404.30469	1669.16052	-1226.75061	952.65393	1668.30872	-1244.52075	506.40228	1667.64978	
170	0.845	-576.50378	2754.32007	1664.18262	-603.62152	2305.06812	1653.44348	-637.40924	1851.38110	1646.80396	-660.76215	1349.62256	1646.72595	-689.71802	902.99664	1653.75061	-713.82373	455.32495	1663.98926	-1113.55298	2808.17358	1664.69373	-1140.71838	2356.47192	1667.85193	-1171.17908	1906.04834	1668.77356	-1198.95227	1404.30139	1669.17468	-1226.74304	952.63605	1668.30811	-1244.51526	506.38922	1667.65222	
